<mxfile host="app.diagrams.net" modified="2023-05-30T14:43:53.821Z" agent="Mozilla/5.0 (X11; Linux x86_64) AppleWebKit/537.36 (KHTML, like Gecko) Chrome/107.0.0.0 Safari/537.36" etag="Lny3JsC3IL1J__-6Sw5B" version="21.3.5" type="github">
  <diagram id="R2lEEEUBdFMjLlhIrx00" name="Page-1">
    <mxGraphModel dx="811" dy="501" grid="1" gridSize="10" guides="1" tooltips="1" connect="1" arrows="1" fold="1" page="1" pageScale="1" pageWidth="850" pageHeight="1100" math="0" shadow="0" extFonts="Permanent Marker^https://fonts.googleapis.com/css?family=Permanent+Marker">
      <root>
        <mxCell id="0" />
        <mxCell id="1" parent="0" />
        <mxCell id="ce_LY2vHRv85qtYyiDQN-1" value="Evento" style="ellipse;whiteSpace=wrap;html=1;" vertex="1" parent="1">
          <mxGeometry x="110" y="360" width="120" height="80" as="geometry" />
        </mxCell>
        <mxCell id="ce_LY2vHRv85qtYyiDQN-2" value="Ubicación" style="text;html=1;strokeColor=none;fillColor=none;align=center;verticalAlign=middle;whiteSpace=wrap;rounded=0;" vertex="1" parent="1">
          <mxGeometry x="20" y="337.5" width="80" height="30" as="geometry" />
        </mxCell>
        <mxCell id="ce_LY2vHRv85qtYyiDQN-3" value="Fecha" style="text;html=1;strokeColor=none;fillColor=none;align=center;verticalAlign=middle;whiteSpace=wrap;rounded=0;" vertex="1" parent="1">
          <mxGeometry x="20" y="367.5" width="80" height="30" as="geometry" />
        </mxCell>
        <mxCell id="ce_LY2vHRv85qtYyiDQN-4" value="Tipo" style="text;html=1;strokeColor=none;fillColor=none;align=center;verticalAlign=middle;whiteSpace=wrap;rounded=0;" vertex="1" parent="1">
          <mxGeometry x="20" y="392.5" width="80" height="35" as="geometry" />
        </mxCell>
        <mxCell id="ce_LY2vHRv85qtYyiDQN-5" value="Descripción" style="text;html=1;strokeColor=none;fillColor=none;align=center;verticalAlign=middle;whiteSpace=wrap;rounded=0;" vertex="1" parent="1">
          <mxGeometry x="20" y="420" width="80" height="35" as="geometry" />
        </mxCell>
        <mxCell id="ce_LY2vHRv85qtYyiDQN-6" value="&lt;b&gt;Identificador&lt;/b&gt;" style="text;html=1;strokeColor=none;fillColor=none;align=center;verticalAlign=middle;whiteSpace=wrap;rounded=0;" vertex="1" parent="1">
          <mxGeometry x="20" y="450" width="80" height="35" as="geometry" />
        </mxCell>
        <mxCell id="ce_LY2vHRv85qtYyiDQN-7" value="" style="endArrow=none;html=1;rounded=0;exitX=0.5;exitY=0;exitDx=0;exitDy=0;" edge="1" parent="1" source="ce_LY2vHRv85qtYyiDQN-1">
          <mxGeometry width="50" height="50" relative="1" as="geometry">
            <mxPoint x="169.17" y="350" as="sourcePoint" />
            <mxPoint x="169" y="190" as="targetPoint" />
          </mxGeometry>
        </mxCell>
        <mxCell id="ce_LY2vHRv85qtYyiDQN-8" value="" style="endArrow=none;html=1;rounded=0;" edge="1" parent="1">
          <mxGeometry width="50" height="50" relative="1" as="geometry">
            <mxPoint x="170" y="190" as="sourcePoint" />
            <mxPoint x="320" y="190" as="targetPoint" />
          </mxGeometry>
        </mxCell>
        <mxCell id="ce_LY2vHRv85qtYyiDQN-9" value="tiene" style="rhombus;whiteSpace=wrap;html=1;" vertex="1" parent="1">
          <mxGeometry x="320" y="150" width="80" height="80" as="geometry" />
        </mxCell>
        <mxCell id="ce_LY2vHRv85qtYyiDQN-10" value="" style="endArrow=none;html=1;rounded=0;exitX=1;exitY=0.5;exitDx=0;exitDy=0;entryX=0;entryY=0.5;entryDx=0;entryDy=0;" edge="1" parent="1" source="ce_LY2vHRv85qtYyiDQN-59" target="ce_LY2vHRv85qtYyiDQN-11">
          <mxGeometry width="50" height="50" relative="1" as="geometry">
            <mxPoint x="330" y="340" as="sourcePoint" />
            <mxPoint x="500" y="190" as="targetPoint" />
            <Array as="points" />
          </mxGeometry>
        </mxCell>
        <mxCell id="ce_LY2vHRv85qtYyiDQN-11" value="Compra" style="ellipse;whiteSpace=wrap;html=1;" vertex="1" parent="1">
          <mxGeometry x="586" y="150" width="120" height="80" as="geometry" />
        </mxCell>
        <mxCell id="ce_LY2vHRv85qtYyiDQN-12" value="Tipo de pago" style="text;html=1;strokeColor=none;fillColor=none;align=center;verticalAlign=middle;whiteSpace=wrap;rounded=0;" vertex="1" parent="1">
          <mxGeometry x="716" y="116.25" width="80" height="30" as="geometry" />
        </mxCell>
        <mxCell id="ce_LY2vHRv85qtYyiDQN-13" value="Fecha" style="text;html=1;strokeColor=none;fillColor=none;align=center;verticalAlign=middle;whiteSpace=wrap;rounded=0;" vertex="1" parent="1">
          <mxGeometry x="716" y="146.25" width="80" height="30" as="geometry" />
        </mxCell>
        <mxCell id="ce_LY2vHRv85qtYyiDQN-14" value="Hora" style="text;html=1;strokeColor=none;fillColor=none;align=center;verticalAlign=middle;whiteSpace=wrap;rounded=0;" vertex="1" parent="1">
          <mxGeometry x="716" y="171.25" width="80" height="35" as="geometry" />
        </mxCell>
        <mxCell id="ce_LY2vHRv85qtYyiDQN-15" value="Precio total" style="text;html=1;strokeColor=none;fillColor=none;align=center;verticalAlign=middle;whiteSpace=wrap;rounded=0;" vertex="1" parent="1">
          <mxGeometry x="716" y="198.75" width="80" height="35" as="geometry" />
        </mxCell>
        <mxCell id="ce_LY2vHRv85qtYyiDQN-16" value="&lt;b&gt;i&lt;/b&gt;mpuestos" style="text;html=1;strokeColor=none;fillColor=none;align=center;verticalAlign=middle;whiteSpace=wrap;rounded=0;" vertex="1" parent="1">
          <mxGeometry x="716" y="228.75" width="80" height="35" as="geometry" />
        </mxCell>
        <mxCell id="ce_LY2vHRv85qtYyiDQN-17" value="&lt;b&gt;Identificador&lt;/b&gt;" style="text;html=1;strokeColor=none;fillColor=none;align=center;verticalAlign=middle;whiteSpace=wrap;rounded=0;" vertex="1" parent="1">
          <mxGeometry x="716" y="263.75" width="80" height="30" as="geometry" />
        </mxCell>
        <mxCell id="ce_LY2vHRv85qtYyiDQN-25" value="Asiento" style="ellipse;whiteSpace=wrap;html=1;" vertex="1" parent="1">
          <mxGeometry x="586" y="425" width="120" height="80" as="geometry" />
        </mxCell>
        <mxCell id="ce_LY2vHRv85qtYyiDQN-27" value="Zona" style="text;html=1;strokeColor=none;fillColor=none;align=center;verticalAlign=middle;whiteSpace=wrap;rounded=0;" vertex="1" parent="1">
          <mxGeometry x="506" y="415.25" width="80" height="30" as="geometry" />
        </mxCell>
        <mxCell id="ce_LY2vHRv85qtYyiDQN-28" value="Tipo" style="text;html=1;strokeColor=none;fillColor=none;align=center;verticalAlign=middle;whiteSpace=wrap;rounded=0;" vertex="1" parent="1">
          <mxGeometry x="506" y="440.25" width="80" height="35" as="geometry" />
        </mxCell>
        <mxCell id="ce_LY2vHRv85qtYyiDQN-29" value="Precio" style="text;html=1;strokeColor=none;fillColor=none;align=center;verticalAlign=middle;whiteSpace=wrap;rounded=0;" vertex="1" parent="1">
          <mxGeometry x="506" y="467.75" width="80" height="35" as="geometry" />
        </mxCell>
        <mxCell id="ce_LY2vHRv85qtYyiDQN-30" value="&lt;b&gt;Identificador&lt;/b&gt;" style="text;html=1;strokeColor=none;fillColor=none;align=center;verticalAlign=middle;whiteSpace=wrap;rounded=0;" vertex="1" parent="1">
          <mxGeometry x="506" y="497.75" width="80" height="35" as="geometry" />
        </mxCell>
        <mxCell id="ce_LY2vHRv85qtYyiDQN-31" value="" style="endArrow=none;html=1;rounded=0;entryX=0.5;entryY=1;entryDx=0;entryDy=0;exitX=0.5;exitY=0;exitDx=0;exitDy=0;" edge="1" parent="1" source="ce_LY2vHRv85qtYyiDQN-25" target="ce_LY2vHRv85qtYyiDQN-33">
          <mxGeometry width="50" height="50" relative="1" as="geometry">
            <mxPoint x="350" y="390" as="sourcePoint" />
            <mxPoint x="400" y="340" as="targetPoint" />
          </mxGeometry>
        </mxCell>
        <mxCell id="ce_LY2vHRv85qtYyiDQN-32" value="" style="endArrow=none;html=1;rounded=0;entryX=0.5;entryY=1;entryDx=0;entryDy=0;" edge="1" parent="1" source="ce_LY2vHRv85qtYyiDQN-34" target="ce_LY2vHRv85qtYyiDQN-11">
          <mxGeometry width="50" height="50" relative="1" as="geometry">
            <mxPoint x="646" y="270" as="sourcePoint" />
            <mxPoint x="400" y="340" as="targetPoint" />
          </mxGeometry>
        </mxCell>
        <mxCell id="ce_LY2vHRv85qtYyiDQN-33" value="tiene" style="rhombus;whiteSpace=wrap;html=1;" vertex="1" parent="1">
          <mxGeometry x="606" y="270" width="80" height="80" as="geometry" />
        </mxCell>
        <mxCell id="ce_LY2vHRv85qtYyiDQN-35" value="" style="endArrow=none;html=1;rounded=0;entryX=0.5;entryY=1;entryDx=0;entryDy=0;" edge="1" parent="1" target="ce_LY2vHRv85qtYyiDQN-34">
          <mxGeometry width="50" height="50" relative="1" as="geometry">
            <mxPoint x="646" y="270" as="sourcePoint" />
            <mxPoint x="646" y="230" as="targetPoint" />
          </mxGeometry>
        </mxCell>
        <mxCell id="ce_LY2vHRv85qtYyiDQN-34" value="" style="ellipse;whiteSpace=wrap;html=1;aspect=fixed;" vertex="1" parent="1">
          <mxGeometry x="639" y="233.75" width="16.25" height="16.25" as="geometry" />
        </mxCell>
        <mxCell id="ce_LY2vHRv85qtYyiDQN-36" value="M" style="text;html=1;strokeColor=none;fillColor=none;align=center;verticalAlign=middle;whiteSpace=wrap;rounded=0;" vertex="1" parent="1">
          <mxGeometry x="639" y="228.75" width="60" height="30" as="geometry" />
        </mxCell>
        <mxCell id="ce_LY2vHRv85qtYyiDQN-37" value="N" style="text;html=1;strokeColor=none;fillColor=none;align=center;verticalAlign=middle;whiteSpace=wrap;rounded=0;" vertex="1" parent="1">
          <mxGeometry x="646" y="395" width="60" height="30" as="geometry" />
        </mxCell>
        <mxCell id="ce_LY2vHRv85qtYyiDQN-40" value="" style="endArrow=none;html=1;rounded=0;" edge="1" parent="1">
          <mxGeometry width="50" height="50" relative="1" as="geometry">
            <mxPoint x="652" y="409" as="sourcePoint" />
            <mxPoint x="642" y="409" as="targetPoint" />
          </mxGeometry>
        </mxCell>
        <mxCell id="ce_LY2vHRv85qtYyiDQN-41" value="" style="endArrow=none;html=1;rounded=0;" edge="1" parent="1" target="ce_LY2vHRv85qtYyiDQN-11">
          <mxGeometry width="50" height="50" relative="1" as="geometry">
            <mxPoint x="540" y="250" as="sourcePoint" />
            <mxPoint x="420" y="300" as="targetPoint" />
          </mxGeometry>
        </mxCell>
        <mxCell id="ce_LY2vHRv85qtYyiDQN-42" value="Realiza" style="rhombus;whiteSpace=wrap;html=1;rotation=-30;" vertex="1" parent="1">
          <mxGeometry x="470" y="227.75" width="80" height="80" as="geometry" />
        </mxCell>
        <mxCell id="ce_LY2vHRv85qtYyiDQN-44" value="" style="endArrow=none;html=1;rounded=0;entryX=0;entryY=0.5;entryDx=0;entryDy=0;" edge="1" parent="1" target="ce_LY2vHRv85qtYyiDQN-42">
          <mxGeometry width="50" height="50" relative="1" as="geometry">
            <mxPoint x="420" y="320" as="sourcePoint" />
            <mxPoint x="420" y="300" as="targetPoint" />
          </mxGeometry>
        </mxCell>
        <mxCell id="ce_LY2vHRv85qtYyiDQN-45" value="Persona" style="ellipse;whiteSpace=wrap;html=1;" vertex="1" parent="1">
          <mxGeometry x="300" y="280" width="120" height="80" as="geometry" />
        </mxCell>
        <mxCell id="ce_LY2vHRv85qtYyiDQN-46" value="Nombre" style="text;html=1;strokeColor=none;fillColor=none;align=center;verticalAlign=middle;whiteSpace=wrap;rounded=0;" vertex="1" parent="1">
          <mxGeometry x="220" y="230" width="80" height="30" as="geometry" />
        </mxCell>
        <mxCell id="ce_LY2vHRv85qtYyiDQN-47" value="PA" style="text;html=1;strokeColor=none;fillColor=none;align=center;verticalAlign=middle;whiteSpace=wrap;rounded=0;" vertex="1" parent="1">
          <mxGeometry x="220" y="260" width="80" height="30" as="geometry" />
        </mxCell>
        <mxCell id="ce_LY2vHRv85qtYyiDQN-48" value="SA" style="text;html=1;strokeColor=none;fillColor=none;align=center;verticalAlign=middle;whiteSpace=wrap;rounded=0;" vertex="1" parent="1">
          <mxGeometry x="220" y="285" width="80" height="35" as="geometry" />
        </mxCell>
        <mxCell id="ce_LY2vHRv85qtYyiDQN-49" value="Correo" style="text;html=1;strokeColor=none;fillColor=none;align=center;verticalAlign=middle;whiteSpace=wrap;rounded=0;" vertex="1" parent="1">
          <mxGeometry x="220" y="312.5" width="80" height="35" as="geometry" />
        </mxCell>
        <mxCell id="ce_LY2vHRv85qtYyiDQN-50" value="&lt;b&gt;Identificador&lt;/b&gt;" style="text;html=1;strokeColor=none;fillColor=none;align=center;verticalAlign=middle;whiteSpace=wrap;rounded=0;" vertex="1" parent="1">
          <mxGeometry x="220" y="342.5" width="80" height="35" as="geometry" />
        </mxCell>
        <mxCell id="ce_LY2vHRv85qtYyiDQN-60" value="" style="endArrow=none;html=1;rounded=0;exitX=1;exitY=0.5;exitDx=0;exitDy=0;entryX=0;entryY=0.5;entryDx=0;entryDy=0;" edge="1" parent="1" source="ce_LY2vHRv85qtYyiDQN-9" target="ce_LY2vHRv85qtYyiDQN-59">
          <mxGeometry width="50" height="50" relative="1" as="geometry">
            <mxPoint x="400" y="190" as="sourcePoint" />
            <mxPoint x="586" y="190" as="targetPoint" />
            <Array as="points" />
          </mxGeometry>
        </mxCell>
        <mxCell id="ce_LY2vHRv85qtYyiDQN-59" value="" style="ellipse;whiteSpace=wrap;html=1;aspect=fixed;" vertex="1" parent="1">
          <mxGeometry x="560" y="180" width="20" height="20" as="geometry" />
        </mxCell>
        <mxCell id="ce_LY2vHRv85qtYyiDQN-61" value="N" style="text;html=1;strokeColor=none;fillColor=none;align=center;verticalAlign=middle;whiteSpace=wrap;rounded=0;" vertex="1" parent="1">
          <mxGeometry x="540" y="146.25" width="60" height="30" as="geometry" />
        </mxCell>
        <mxCell id="ce_LY2vHRv85qtYyiDQN-62" value="" style="endArrow=none;html=1;rounded=0;" edge="1" parent="1">
          <mxGeometry width="50" height="50" relative="1" as="geometry">
            <mxPoint x="454" y="310" as="sourcePoint" />
            <mxPoint x="425" y="311" as="targetPoint" />
          </mxGeometry>
        </mxCell>
        <mxCell id="ce_LY2vHRv85qtYyiDQN-63" value="1" style="text;html=1;strokeColor=none;fillColor=none;align=center;verticalAlign=middle;whiteSpace=wrap;rounded=0;" vertex="1" parent="1">
          <mxGeometry x="430" y="295" width="60" height="30" as="geometry" />
        </mxCell>
        <mxCell id="ce_LY2vHRv85qtYyiDQN-64" value="" style="ellipse;whiteSpace=wrap;html=1;aspect=fixed;" vertex="1" parent="1">
          <mxGeometry x="580" y="213.75" width="20" height="20" as="geometry" />
        </mxCell>
        <mxCell id="ce_LY2vHRv85qtYyiDQN-65" value="N" style="text;html=1;strokeColor=none;fillColor=none;align=center;verticalAlign=middle;whiteSpace=wrap;rounded=0;" vertex="1" parent="1">
          <mxGeometry x="550" y="220" width="60" height="30" as="geometry" />
        </mxCell>
        <mxCell id="ce_LY2vHRv85qtYyiDQN-66" value="" style="endArrow=none;html=1;rounded=0;" edge="1" parent="1">
          <mxGeometry width="50" height="50" relative="1" as="geometry">
            <mxPoint x="184" y="345" as="sourcePoint" />
            <mxPoint x="155" y="346" as="targetPoint" />
          </mxGeometry>
        </mxCell>
        <mxCell id="ce_LY2vHRv85qtYyiDQN-67" value="1" style="text;html=1;strokeColor=none;fillColor=none;align=center;verticalAlign=middle;whiteSpace=wrap;rounded=0;" vertex="1" parent="1">
          <mxGeometry x="160" y="330" width="60" height="30" as="geometry" />
        </mxCell>
      </root>
    </mxGraphModel>
  </diagram>
</mxfile>
